# xmcd
#
# Track frame offsets:
#	150
#	19915
#	39120
#	57100
#	78390
#	94434
#	112247
#	132558
#	151522
#	171216
#	191218
#
# Disc length: 2823 seconds
#
# Revision: 786398
# Processed by: cddbd v1.5.2PL0 Copyright (c) Steve Scherf et al.
# Submitted via: EZCDAudioConverter 8.3.2.1
#
DISCID=8f0b050b
DTITLE=趙鵬 - 閃亮的日子 FORS MASTER SOUND HQCD DE-Magnetic (WAV)
DYEAR=2015
DGENRE=Early Music
TTITLE0=被遺忘的時光
TTITLE1=味道
TTITLE2=外婆的澎湖灣
TTITLE3=月亮代表我的心
TTITLE4=夜上海
TTITLE5=閃亮的日子
TTITLE6=甜蜜蜜
TTITLE7=南屏晚鐘
TTITLE8=綠島小夜曲
TTITLE9=船歌
TTITLE10=請跟我來
EXTD=
EXTT0=
EXTT1=
EXTT2=
EXTT3=
EXTT4=
EXTT5=
EXTT6=
EXTT7=
EXTT8=
EXTT9=
EXTT10=
PLAYORDER=
